<?xml version="1.0" encoding="UTF-8"?>
<svg id="Layer_1" xmlns="http://www.w3.org/2000/svg" version="1.1" xmlns:xlink="http://www.w3.org/1999/xlink" viewBox="0 0 538.87 123.7">
  <!-- Generator: Adobe Illustrator 29.6.1, SVG Export Plug-In . SVG Version: 2.1.1 Build 9)  -->
  <defs>
    <style>
      .st0 {
        fill: #231f20;
      }

      .st1 {
        fill: #ed1c24;
      }

      .st2 {
        fill: #be1e2d;
      }

      .st3 {
        clip-path: url(#clippath);
      }
    </style>
    <clipPath id="clippath">
      <path class="st1" d="M54.88,53.24s15.57-1.83,22.09-4.64l-16.83,32.58h12.33l-29.35,41.43,11.02-31.46-13.5.59,14.24-38.5Z"/>
    </clipPath>
  </defs>
  <path class="st1" d="M89.74,50.76h82.04s-2.06-3.54-2.35-9.79l-79.69,9.79Z"/>
  <path class="st0" d="M201.15,17.28l8.69-6.4-9.44,4.32-7.64.22-2.49-3.43c1.27-1.1,2.79-2.93,4.33-3.98-5.99.16-6.53.41-7.8.61-1.48,1.41-3.06,3.23-4.6,5.24-2.47,3.19-5.27,7.66-6.64,12.75l-85.82,19.24,84.26-10.37s-.65,8.74,2.61,15.26l2.77-3.55.35-.76c-1.09-4.2-2.08-11.02.02-18.38l4.95-.61,2.69,7.53-7.66,11.46c.7,2.7,1.44,4.32,1.44,4.32h3.91l-3.74-3.65,7.38-11.36,9.95-5.75,7.39,5.14-6.25-6.76,1.34-11.1ZM191,16.14c-1.14,1.09-2.05,2.14-3.32,3.97-1.38,1.99-2.31,3.88-2.94,5.43-1.45.18-2.91.36-4.36.54,1.56-4.36,4.26-8.84,8.72-13.03l1.9,3.09Z"/>
  <path class="st0" d="M181.17,50.76h-4.56s2.77-3.56,2.77-3.56l.35-.76c.7,2.7,1.44,4.32,1.44,4.32Z"/>
  <path class="st1" d="M238.44,50.87l297.7-.11-290.72-5.68s7.64-36.93-29.04-43.71c0,0-27.27-5.3-97.74,14.76l-11.35,3.71,2.15-11.15c-9.35,8.18-23.01,18.37-41.22,26.81-22.19,10.28-42.34,13.89-56.06,15.25,3.06-.21,52.6-3.95,86.72-23.47l-5.14,8.04S128.2,5.99,213.8,4.99l-3.96,5.89,10.11,8.35-1.11,11.48-12.78,4.43v13.5l-2.81,2.12h3l.85-.95,2.35.95h12.19l5.42-8.45,9.26-.56M236.25,39.9l-9.32.65-6.39-9.89,1.17-11.44,8.17-.38,7.83,10.47-1.46,10.59ZM239.38,28.42l-8.26-10.54-3.19-7.42c5.42,3.33,10.8,8.87,12.7,18.05l-1.25-.09Z"/>
  <g>
    <path class="st1" d="M54.88,53.24s15.57-1.83,22.09-4.64l-16.83,32.58h12.33l-29.35,41.43,11.02-31.46-13.5.59,14.24-38.5Z"/>
    <g class="st3">
      <polygon class="st2" points="58.94 52.75 45.09 88.25 57.2 87.86 43.59 122.54 33.85 52.42 58.94 52.75"/>
    </g>
  </g>
  <g>
    <path class="st0" d="M116.26,102.65c-7.08,3.66-12.3,4.68-17.7,4.68-11.16,0-17.4-6.54-17.4-16.86,0-15,11.46-28.02,27.36-28.02,6.72,0,11.94,2.1,15.66,4.62l-3.84,10.08h-.42c-3.24-2.88-7.26-5.16-12.24-5.16-9.18,0-15.12,8.04-15.12,17.04,0,5.58,2.76,8.94,8.16,8.94,2.64,0,4.98-.48,7.44-1.74l1.38-6.42h-7.38l1.56-7.2h16.8l-4.26,20.04Z"/>
    <path class="st0" d="M157.96,63.65l6.66,42.18-.24.3h-11.46l-.78-7.74h-14.76l-4.08,7.74h-11.82l-.18-.36,24.72-42.12h11.94ZM141.28,90.95h10.08l-.66-6.48c-.18-3.54-.42-8.34-.42-11.94h-.18c-1.5,3.66-3.78,8.4-5.46,12l-3.36,6.42Z"/>
    <path class="st0" d="M220.18,72.59h-17.1l-1.74,8.28h15.24l-1.56,7.38h-15.24l-1.92,8.94h17.1l-2.88,8.94h-26.58l9-42.48h26.58l-.9,8.94Z"/>
    <path class="st0" d="M231.04,63.65h10.5l-7.02,33.18h17.64l-3.12,9.3h-27l9-42.48Z"/>
    <path class="st0" d="M291.7,72.59h-17.1l-1.74,8.28h15.24l-1.56,7.38h-15.24l-1.92,8.94h17.1l-2.88,8.94h-26.58l9-42.48h26.58l-.9,8.94Z"/>
    <path class="st0" d="M340,64.01l-18.9,17.52,10.68,24.3-.24.3h-11.22l-7.32-17.16-6.66,6.18-2.28,10.98h-10.5l9-42.48h10.5l-1.44,6.84c-1.02,4.92-2.16,9.36-3.12,12.3l.18.12c2.82-3.24,7.32-7.92,12.24-12.6l6.9-6.66h12.06l.12.36Z"/>
    <path class="st0" d="M377.32,63.65l-2.04,9.66h-12.12l-6.96,32.82h-10.44l6.96-32.82h-12.12l2.04-9.66h34.68Z"/>
    <path class="st0" d="M402.52,88.61l8.16,16.44-.66,1.08h-10.2l-7.14-15.78h-4.02l-3.36,15.78h-10.5l9-42.48h14.76c9.72,0,14.28,3.72,14.28,10.68,0,6.6-3.9,11.88-10.32,14.28ZM392.5,72.17l-2.22,10.44h4.14c5.4,0,8.04-2.46,8.04-6.42,0-2.76-1.74-4.02-5.82-4.02h-4.14Z"/>
    <path class="st0" d="M430.96,63.65l2.4,8.88c.6,2.46,1.32,5.76,1.74,8.28h.24c1.56-2.52,3.6-5.82,5.22-8.28l6.12-8.88h12.24l.12.36-20.1,25.26-3.6,16.86h-10.44l3.6-16.86-9.48-25.32.24-.3h11.7Z"/>
    <path class="st0" d="M502.6,64.01l-18.9,17.52,10.68,24.3-.24.3h-11.22l-7.32-17.16-6.66,6.18-2.28,10.98h-10.5l9-42.48h10.5l-1.44,6.84c-1.02,4.92-2.16,9.36-3.12,12.3l.18.12c2.82-3.24,7.32-7.92,12.24-12.6l6.9-6.66h12.06l.12.36Z"/>
    <path class="st0" d="M531.34,63.65l6.66,42.18-.24.3h-11.46l-.78-7.74h-14.76l-4.08,7.74h-11.82l-.18-.36,24.72-42.12h11.94ZM514.66,90.95h10.08l-.66-6.48c-.18-3.54-.42-8.34-.42-11.94h-.18c-1.5,3.66-3.78,8.4-5.46,12l-3.36,6.42Z"/>
  </g>
  <path class="st0" d="M10.05,63.65h10.5l-7.02,33.18h17.64l-3.12,9.3H1.05l9-42.48Z"/>
</svg>